<mxfile host="app.diagrams.net" modified="2022-05-08T06:09:16.905Z" agent="5.0 (Macintosh; Intel Mac OS X 10_15_7) AppleWebKit/537.36 (KHTML, like Gecko) Chrome/100.0.4896.88 Safari/537.36" etag="AIaL_u23eLuS5UfJtJ_w" version="18.0.1" type="github">
  <diagram id="9h1SM2i8hLSbf8hosGcf" name="Page-1">
    <mxGraphModel dx="946" dy="532" grid="1" gridSize="10" guides="1" tooltips="1" connect="1" arrows="1" fold="1" page="1" pageScale="1" pageWidth="850" pageHeight="1100" math="0" shadow="0">
      <root>
        <mxCell id="0" />
        <mxCell id="1" parent="0" />
        <mxCell id="LMMTUrtzFj_u9eivjfP1-3" value="" style="rounded=0;whiteSpace=wrap;html=1;" vertex="1" parent="1">
          <mxGeometry x="10" y="10" width="830" height="540" as="geometry" />
        </mxCell>
        <mxCell id="LMMTUrtzFj_u9eivjfP1-5" value="" style="rounded=0;whiteSpace=wrap;html=1;" vertex="1" parent="1">
          <mxGeometry x="10" y="10" width="830" height="50" as="geometry" />
        </mxCell>
        <mxCell id="LMMTUrtzFj_u9eivjfP1-6" value="&lt;font style=&quot;font-size: 17px;&quot;&gt;&lt;b&gt;Child Profiles&lt;/b&gt;&lt;/font&gt;" style="text;html=1;strokeColor=none;fillColor=none;align=left;verticalAlign=middle;whiteSpace=wrap;rounded=0;" vertex="1" parent="1">
          <mxGeometry x="30" y="10" width="230" height="50" as="geometry" />
        </mxCell>
        <mxCell id="LMMTUrtzFj_u9eivjfP1-7" value="" style="rounded=1;whiteSpace=wrap;html=1;fontSize=17;" vertex="1" parent="1">
          <mxGeometry x="20" y="70" width="270" height="470" as="geometry" />
        </mxCell>
        <mxCell id="LMMTUrtzFj_u9eivjfP1-8" value="&lt;font style=&quot;font-size: 13px;&quot;&gt;Add child&lt;/font&gt;" style="rounded=1;html=1;shadow=0;dashed=0;whiteSpace=wrap;fontSize=10;fillColor=#999999;align=center;strokeColor=#666666;fontColor=#ffffff;strokeWidth=2;" vertex="1" parent="1">
          <mxGeometry x="640" y="90" width="130" height="30" as="geometry" />
        </mxCell>
        <mxCell id="LMMTUrtzFj_u9eivjfP1-9" value="" style="rounded=1;whiteSpace=wrap;html=1;fontSize=17;" vertex="1" parent="1">
          <mxGeometry x="300" y="70" width="270" height="470" as="geometry" />
        </mxCell>
        <mxCell id="LMMTUrtzFj_u9eivjfP1-11" value="ID: 1&lt;br&gt;&lt;br&gt;&lt;br&gt;Name: name&lt;br&gt;&lt;br&gt;&lt;br&gt;Gender: gender&lt;br&gt;&lt;br&gt;&lt;br&gt;Guardians: guardian 1, guardian 2&lt;br&gt;&lt;br&gt;&lt;br&gt;Postal code: postal code&lt;br&gt;&lt;br&gt;&lt;br&gt;Address: address" style="text;html=1;strokeColor=none;fillColor=none;align=left;verticalAlign=middle;whiteSpace=wrap;rounded=0;fontSize=17;" vertex="1" parent="1">
          <mxGeometry x="40" y="106.88" width="220" height="390" as="geometry" />
        </mxCell>
        <mxCell id="LMMTUrtzFj_u9eivjfP1-12" value="ID: 2&lt;br&gt;&lt;br&gt;&lt;br&gt;Name: name&lt;br&gt;&lt;br&gt;&lt;br&gt;Gender: gender&lt;br&gt;&lt;br&gt;&lt;br&gt;Guardians: guardian 1, guardian 2&lt;br&gt;&lt;br&gt;&lt;br&gt;Postal code: postal code&lt;br&gt;&lt;br&gt;&lt;br&gt;Address: address" style="text;html=1;strokeColor=none;fillColor=none;align=left;verticalAlign=middle;whiteSpace=wrap;rounded=0;fontSize=17;" vertex="1" parent="1">
          <mxGeometry x="325" y="106.88" width="220" height="390" as="geometry" />
        </mxCell>
      </root>
    </mxGraphModel>
  </diagram>
</mxfile>
